HIERARCHY
ROOT Hips
{
	OFFSET 0.000000 0.000000 0.000000
	CHANNELS 6 Xposition Yposition Zposition Zrotation Yrotation Xrotation 
	JOINT LHipJoint
	{
		OFFSET 0.000000 0.000000 0.000000
		CHANNELS 3 Zrotation Yrotation Xrotation
		JOINT LeftUpLeg
		{
			OFFSET 1.363060 -1.794630 0.839290
			CHANNELS 3 Zrotation Yrotation Xrotation
			JOINT LeftLeg
			{
				OFFSET 2.448110 -6.726130 0.000000
				CHANNELS 3 Zrotation Yrotation Xrotation
				JOINT LeftFoot
				{
					OFFSET 2.562200 -7.039590 0.000000
					CHANNELS 3 Zrotation Yrotation Xrotation
					JOINT LeftToeBase
					{
						OFFSET 0.157640 -0.433110 2.322550
						CHANNELS 3 Zrotation Yrotation Xrotation
						End Site
						{
							OFFSET 0.000000 0.000000 0.000000
						}
					}
				}
			}
		}
	}
	JOINT RHipJoint
	{
		OFFSET 0.000000 0.000000 0.000000
		CHANNELS 3 Zrotation Yrotation Xrotation
		JOINT RightUpLeg
		{
			OFFSET -1.305520 -1.794630 0.839290
			CHANNELS 3 Zrotation Yrotation Xrotation
			JOINT RightLeg
			{
				OFFSET -2.542530 -6.985550 0.000000
				CHANNELS 3 Zrotation Yrotation Xrotation
				JOINT RightFoot
				{
					OFFSET -2.568260 -7.056230 0.000000
					CHANNELS 3 Zrotation Yrotation Xrotation
					JOINT RightToeBase
					{
						OFFSET -0.164730 -0.452590 2.363150
						CHANNELS 3 Zrotation Yrotation Xrotation
						End Site
						{
							OFFSET 0.000000 0.000000 0.000000
						}
					}
				}
			}
		}
	}
	JOINT LowerBack
	{
		OFFSET 0.000000 0.000000 0.000000
		CHANNELS 3 Zrotation Yrotation Xrotation
		JOINT Spine
		{
			OFFSET 0.028270 2.035590 -0.193380
			CHANNELS 3 Zrotation Yrotation Xrotation
			JOINT Spine1
			{
				OFFSET 0.056720 2.048850 -0.042750
				CHANNELS 3 Zrotation Yrotation Xrotation
				JOINT Neck
				{
					OFFSET 0.000000 0.000000 0.000000
					CHANNELS 3 Zrotation Yrotation Xrotation
					JOINT Neck1
					{
						OFFSET -0.054170 1.746240 0.172020
						CHANNELS 3 Zrotation Yrotation Xrotation
						JOINT Head
						{
							OFFSET 0.104070 1.761360 -0.123970
							CHANNELS 3 Zrotation Yrotation Xrotation
							End Site
							{
								OFFSET 0.000000 0.000000 0.000000
							}
						}
					}
				}
				JOINT LeftShoulder
				{
					OFFSET 0.000000 0.000000 0.000000
					CHANNELS 3 Zrotation Yrotation Xrotation
					JOINT LeftArm
					{
						OFFSET 3.362410 1.200890 -0.311210
						CHANNELS 3 Zrotation Yrotation Xrotation
						JOINT LeftForeArm
						{
							OFFSET 4.983000 -0.000000 -0.000000
							CHANNELS 3 Zrotation Yrotation Xrotation
							JOINT LeftHand
							{
								OFFSET 3.483560 -0.000000 -0.000000
								CHANNELS 3 Zrotation Yrotation Xrotation
								JOINT LeftFingerBase
								{
									OFFSET 0.000000 0.000000 0.000000
									CHANNELS 3 Zrotation Yrotation Xrotation
									JOINT LeftHandIndex1
									{
										OFFSET 0.715260 -0.000000 -0.000000
										CHANNELS 3 Zrotation Yrotation Xrotation
										End Site
										{
											OFFSET 0.000000 0.000000 0.000000
										}
									}
								}
								JOINT LThumb
								{
									OFFSET 0.000000 0.000000 0.000000
									CHANNELS 3 Zrotation Yrotation Xrotation
									End Site
									{
										OFFSET 0.000000 0.000000 0.000000
									}
								}
							}
						}
					}
				}
				JOINT RightShoulder
				{
					OFFSET 0.000000 0.000000 0.000000
					CHANNELS 3 Zrotation Yrotation Xrotation
					JOINT RightArm
					{
						OFFSET -3.136600 1.374050 -0.404650
						CHANNELS 3 Zrotation Yrotation Xrotation
						JOINT RightForeArm
						{
							OFFSET -5.241900 -0.000000 -0.000000
							CHANNELS 3 Zrotation Yrotation Xrotation
							JOINT RightHand
							{
								OFFSET -3.444170 -0.000000 -0.000000
								CHANNELS 3 Zrotation Yrotation Xrotation
								JOINT RightFingerBase
								{
									OFFSET 0.000000 0.000000 0.000000
									CHANNELS 3 Zrotation Yrotation Xrotation
									JOINT RightHandIndex1
									{
										OFFSET -0.622530 -0.000000 -0.000000
										CHANNELS 3 Zrotation Yrotation Xrotation
										End Site
										{
											OFFSET 0.000000 0.000000 0.000000
										}
									}
								}
								JOINT RThumb
								{
									OFFSET 0.000000 0.000000 0.000000
									CHANNELS 3 Zrotation Yrotation Xrotation
									End Site
									{
										OFFSET 0.000000 0.000000 0.000000
									}
								}
							}
						}
					}
				}
			}
		}
	}
}
MOTION
Frames: 6
Frame Time: 0.008333
-17.959417 14.573690 -0.588645 -12.148374 85.996093 29.888568 -7.832397 -2.370939 1.729548 -11.451313 -7.420989 -97.565011 -0.350556 6.013841 64.039106 2.180801 7.506337 -9.995304 0.334100 -0.000000 -22.099200 10.545136 -2.791003 -2.452714 7.021825 -1.910749 -9.547320 1.703846 -1.282053 27.769721 -1.025931 -4.444044 -5.733682 -0.260700 0.000000 -73.973500 -10.954460 1.307200 3.751530 -2.847223 1.813622 -2.372966 -3.433704 1.796902 -0.639050 6.034595 -11.004457 -9.294323 0.477643 0.104781 -0.904651 0.000000 0.000000 0.000000 9.591145 17.204043 2.267092 -56.554237 39.771134 33.404016 -179.592896 -82.458248 -179.980253 -10.140295 -0.441914 0.050879 0.196015 0.129961 0.000000 0.000000 0.000000 0.000000 0.000000 0.000000 0.000000 -6.016388 -3.268176 0.264097 61.203024 10.594576 27.004117 178.762142 70.969831 -179.980237 2.252529 2.656075 0.062834 -0.013819 -0.487541 -0.000000 0.000000 0.000000 0.000000 0.000000 0.000000 0.000000 
-17.726146 14.565124 -0.586941 -11.979430 85.929454 29.901151 -7.852843 -2.412398 1.491760 -11.867498 -7.011098 -97.007208 -0.254603 6.112447 65.457042 2.208242 7.514710 -11.063718 0.134600 0.000000 -20.848600 10.615236 -2.841550 -2.474157 6.930954 -1.847292 -10.220547 1.475115 -1.532622 30.414098 -1.120599 -5.191212 -4.709751 -0.398501 0.000000 -71.588600 -11.242611 1.263665 3.966320 -2.952334 1.771195 -2.346063 -3.616417 1.757979 -0.725461 6.065373 -10.645094 -9.232713 0.344382 0.093416 -0.897711 0.000000 0.000000 0.000000 8.827278 16.914126 2.364612 -56.411540 38.427127 32.653919 -179.620118 -83.027371 -179.980189 -9.696285 -0.294440 0.036103 0.179048 0.131274 0.000000 0.000000 0.000000 0.000000 0.000000 0.000000 0.000000 -5.559244 -2.885730 0.242185 62.260553 10.217263 26.768843 178.816981 71.540343 -179.980293 2.261849 2.663453 0.063442 -0.017997 -0.488668 -0.000000 0.000000 0.000000 0.000000 0.000000 0.000000 0.000000 
-17.497036 14.561217 -0.585895 -11.626225 85.887915 30.109142 -7.869663 -2.447369 1.263738 -12.278949 -6.643213 -96.347725 -0.182454 6.186016 66.719795 2.254205 7.560859 -12.299055 -0.090800 -0.000001 -19.825200 10.694558 -2.859616 -2.514047 6.874386 -1.836717 -11.126886 1.248158 -1.780570 33.359088 -1.266278 -6.160326 -4.136844 -0.523400 -0.000000 -68.543500 -11.497390 1.198401 4.197971 -3.048664 1.705838 -2.310715 -3.801187 1.696061 -0.800806 6.083680 -10.260151 -9.142972 0.197421 0.080450 -0.883872 0.000000 0.000000 0.000000 8.032035 16.610053 2.462318 -56.314047 36.927354 31.811911 -179.654569 -83.709561 -179.980291 -9.194257 -0.087894 0.017439 0.160410 0.131855 0.000000 0.000000 0.000000 0.000000 0.000000 0.000000 0.000000 -5.037358 -2.505277 0.216572 63.362104 9.877789 26.543710 178.882605 72.277513 -179.980453 2.261518 2.701930 0.064250 -0.021925 -0.489295 -0.000000 0.000000 0.000000 0.000000 0.000000 0.000000 0.000000 
-17.271981 14.561910 -0.585572 -11.145219 85.870481 30.464404 -7.885324 -2.476294 1.052284 -12.661186 -6.322925 -95.611491 -0.128698 6.235501 67.830764 2.315222 7.644000 -13.619601 -0.332500 -0.000000 -19.118699 10.781666 -2.846255 -2.570242 6.855783 -1.882137 -12.260007 1.028209 -2.024195 36.547573 -1.457023 -7.333908 -4.015838 -0.624600 -0.000000 -64.970200 -11.715999 1.112555 4.436672 -3.135164 1.618591 -2.268881 -3.984589 1.612114 -0.864602 6.086638 -9.854445 -9.026536 0.040671 0.066249 -0.863290 0.000000 0.000000 0.000000 7.217217 16.289089 2.559149 -56.258558 35.279973 30.889972 -179.696255 -84.503849 -179.980588 -8.645548 0.175698 -0.003818 0.140462 0.131789 0.000000 0.000000 0.000000 0.000000 0.000000 0.000000 0.000000 -4.468389 -2.132060 0.187326 64.512370 9.567050 26.321959 178.958835 73.190835 -179.980598 2.270864 2.772347 0.066055 -0.026169 -0.489283 -0.000000 0.000000 0.000000 0.000000 0.000000 0.000000 0.000000 
-17.051035 14.567228 -0.586033 -10.593364 85.875244 30.916708 -7.901917 -2.499602 0.862104 -12.995900 -6.053417 -94.820086 -0.088605 6.262099 68.792974 2.387459 7.761775 -14.950979 -0.581500 -0.000000 -18.789300 10.874683 -2.803467 -2.641143 6.876895 -1.984218 -13.609256 0.819304 -2.263751 39.917612 -1.685126 -8.674750 -4.327421 -0.682200 -0.000000 -60.998700 -11.896648 1.009211 4.675359 -3.211009 1.512441 -2.221480 -4.162318 1.509145 -0.914750 6.071571 -9.435181 -8.887486 -0.121457 0.051282 -0.836978 0.000000 0.000000 0.000000 6.404437 15.953655 2.655438 -56.252859 33.479030 29.903885 -179.745835 -85.420015 -179.981086 -8.069550 0.492979 -0.026170 0.119710 0.131225 0.000000 0.000000 0.000000 0.000000 0.000000 0.000000 0.000000 -3.871329 -1.773145 0.154099 65.714966 9.274774 26.089574 179.045764 74.290133 -179.980648 2.304334 2.872007 0.069154 -0.031181 -0.488431 0.000000 0.000000 0.000000 0.000000 0.000000 0.000000 0.000000 
-16.834408 14.577175 -0.587364 -10.038287 85.897818 31.403046 -7.921528 -2.517583 0.696135 -13.269818 -5.833113 -93.994024 -0.058424 6.267837 69.609944 2.467208 7.911020 -16.233620 -0.829600 0.000000 -18.849300 10.970544 -2.733757 -2.724838 6.939952 -2.137829 -15.161263 0.623454 -2.500487 43.406530 -1.941379 -10.129875 -5.032662 -0.671100 0.000000 -56.754300 -12.037691 0.893510 4.908281 -3.275497 1.392417 -2.169056 -4.330005 1.392275 -0.948443 6.036164 -9.012496 -8.731453 -0.284187 0.036071 -0.806379 0.000000 0.000000 0.000000 5.619198 15.610048 2.751680 -56.309438 31.511154 28.872326 -179.804354 -86.473269 -179.981767 -7.491380 0.857471 -0.048321 0.098735 0.130388 0.000000 0.000000 0.000000 0.000000 0.000000 0.000000 0.000000 -3.267216 -1.437518 0.116014 66.973533 8.991945 25.826248 179.143034 75.578731 -179.980574 2.369756 2.995003 0.073845 -0.037234 -0.486546 0.000000 0.000000 0.000000 0.000000 0.000000 0.000000 0.000000 
